<?xml version="1.0" encoding="UTF-8" standalone="no"?>
<!-- Created with Inkscape (http://www.inkscape.org/) -->

<svg
   xmlns:dc="http://purl.org/dc/elements/1.1/"
   xmlns:cc="http://creativecommons.org/ns#"
   xmlns:rdf="http://www.w3.org/1999/02/22-rdf-syntax-ns#"
   xmlns:svg="http://www.w3.org/2000/svg"
   xmlns="http://www.w3.org/2000/svg"
   xmlns:sodipodi="http://sodipodi.sourceforge.net/DTD/sodipodi-0.dtd"
   xmlns:inkscape="http://www.inkscape.org/namespaces/inkscape"
   id="svg2985"
   version="1.1"
   inkscape:version="0.48.4 r9939"
   width="104.16719"
   height="10.203604"
   xml:space="preserve"
   sodipodi:docname="friss.svg"><metadata
     id="metadata2991"><rdf:RDF><cc:Work
         rdf:about=""><dc:format>image/svg+xml</dc:format><dc:type
           rdf:resource="http://purl.org/dc/dcmitype/StillImage" /><dc:title></dc:title></cc:Work></rdf:RDF></metadata><defs
     id="defs2989"><clipPath
       clipPathUnits="userSpaceOnUse"
       id="clipPath3021"><path
         d="m 17.008,17.008 561.26,0 0,807.873 -561.26,0 0,-807.873 z"
         id="path3023"
         inkscape:connector-curvature="0" /></clipPath><clipPath
       clipPathUnits="userSpaceOnUse"
       id="clipPath3101"><path
         d="m 0,0 595.276,0 0,841.89 L 0,841.89 0,0 z"
         id="path3103"
         inkscape:connector-curvature="0" /></clipPath></defs><sodipodi:namedview
     pagecolor="#ffffff"
     bordercolor="#666666"
     borderopacity="1"
     objecttolerance="10"
     gridtolerance="10"
     guidetolerance="10"
     inkscape:pageopacity="0"
     inkscape:pageshadow="2"
     inkscape:window-width="1920"
     inkscape:window-height="1178"
     id="namedview2987"
     showgrid="false"
     inkscape:zoom="0.86947222"
     inkscape:cx="-433.62773"
     inkscape:cy="-336.01104"
     inkscape:window-x="1912"
     inkscape:window-y="-8"
     inkscape:window-maximized="1"
     inkscape:current-layer="g2993"
     fit-margin-top="0"
     fit-margin-left="0"
     fit-margin-right="0"
     fit-margin-bottom="0" /><g
     id="g2993"
     inkscape:groupmode="layer"
     inkscape:label="FRISS"
     transform="matrix(1.25,0,0,-1.25,-292.72035,1024.9492)"><g
       id="g3017"><g
         id="g3019"
         clip-path="url(#clipPath3021)"><g
           id="g3025"
           transform="translate(380.7955,-138.8896)"><path
             d="M 0,0 -137.46,47.79 -249.912,155.015 -112.448,107.226 0,0 z"
             style="fill:#8d0f50;fill-opacity:1;fill-rule:nonzero;stroke:none"
             id="path3027"
             inkscape:connector-curvature="0" /></g></g></g><g
       id="g3117"
       transform="matrix(0.62042131,0,0,0.62042131,235.99225,817.68239)"><path
         d="m 0,0 0,0.627 -1.243,0 0,1.044 c 0,0.815 0.429,1.215 1.243,1.215 l 0,0.727 c -0.557,0 -1.086,-0.099 -1.5,-0.47 -0.356,-0.329 -0.541,-0.8 -0.541,-1.472 l 0,-1.044 -0.886,0 0,-0.627 0.886,0 0,-6.587 0.798,0 0,6.587 L 0,0 z m 4.787,0.043 0,0.755 C 4.301,0.798 3.872,0.671 3.543,0.371 3.429,0.271 3.258,0.071 3.186,-0.086 l 0,0.771 -0.784,0 0,-7.272 0.799,0 0,5.215 c 0,0.872 0.557,1.415 1.414,1.415 l 0.172,0 z m 5.629,-6.63 0,5.414 C 10.416,-0.458 10.245,0 9.917,0.342 9.632,0.642 9.189,0.798 8.617,0.798 8.087,0.798 7.658,0.613 7.359,0.314 6.945,-0.1 6.831,-0.643 6.831,-1.187 l 0.799,0 c 0,0.486 0.1,0.772 0.329,1.015 0.157,0.158 0.372,0.272 0.658,0.272 0.672,0 1.001,-0.443 1.001,-1.244 l 0,-1.301 -0.83,0 C 8.13,-2.445 7.716,-2.602 7.359,-2.93 6.945,-3.301 6.746,-3.887 6.746,-4.573 c 0,-0.786 0.199,-1.358 0.47,-1.644 0.314,-0.327 0.7,-0.484 1.158,-0.484 0.4,0 0.643,0.114 0.872,0.285 0.129,0.099 0.3,0.285 0.4,0.485 l 0,-0.656 0.77,0 z m -0.798,1.914 c 0,-0.758 -0.415,-1.315 -1.059,-1.315 -0.7,0 -1.015,0.557 -1.015,1.429 0,0.486 0.143,0.929 0.386,1.173 0.243,0.228 0.515,0.314 0.887,0.314 l 0.801,0 0,-1.601 z m 7.356,-1.914 0,7.271 -0.798,0 0,-5.472 c 0,-0.8 -0.458,-1.186 -1.016,-1.186 -0.557,0 -1.001,0.386 -1.001,1.186 l 0,5.472 -0.798,0 0,-5.458 c 0,-0.729 0.157,-1.143 0.442,-1.443 0.299,-0.313 0.657,-0.484 1.143,-0.484 0.329,0 0.601,0.1 0.829,0.256 0.129,0.085 0.329,0.285 0.415,0.442 l 0,-0.584 0.784,0 z m 6.501,0 0,10.172 -0.798,0 0,-3.442 c -0.086,0.157 -0.243,0.343 -0.386,0.428 -0.244,0.156 -0.501,0.227 -0.83,0.227 -0.5,0 -0.858,-0.198 -1.129,-0.512 -0.442,-0.515 -0.542,-1.43 -0.542,-3.245 0,-1.815 0.1,-2.715 0.542,-3.23 0.3,-0.341 0.686,-0.512 1.129,-0.512 0.329,0 0.586,0.086 0.83,0.256 0.114,0.085 0.328,0.285 0.4,0.442 l 0,-0.584 0.784,0 z m -0.798,1.871 c 0,-0.472 -0.115,-0.801 -0.329,-1.015 -0.186,-0.172 -0.429,-0.257 -0.701,-0.257 -0.286,0 -0.543,0.142 -0.701,0.328 -0.329,0.4 -0.357,1.144 -0.357,2.701 0,1.558 0.028,2.316 0.357,2.716 0.158,0.186 0.415,0.329 0.701,0.329 0.272,0 0.515,-0.1 0.701,-0.272 0.214,-0.214 0.329,-0.529 0.329,-1 l 0,-3.53 z m 4.784,-2.558 0,1.786 -0.984,0 0,-2.513 0.984,0.727 z m 9.43,7.317 0,0.755 c -0.486,0 -0.914,-0.127 -1.243,-0.427 -0.114,-0.1 -0.286,-0.3 -0.357,-0.457 l 0,0.771 -0.784,0 0,-7.272 0.798,0 0,5.215 c 0,0.872 0.557,1.415 1.415,1.415 l 0.171,0 z m 3.2,0.641 -0.798,0 0,-7.271 0.798,0 0,7.271 z m 0.115,2.7 -1.027,0 0,-1.027 1.027,0 0,1.027 z m 6.401,-8.115 c 0,0.415 -0.086,0.815 -0.286,1.144 -0.2,0.328 -0.514,0.586 -0.986,0.857 l -0.9,0.515 c -0.329,0.185 -0.571,0.357 -0.671,0.543 -0.1,0.171 -0.143,0.386 -0.143,0.629 0,0.3 0.085,0.643 0.314,0.857 0.186,0.186 0.443,0.272 0.757,0.272 0.257,0 0.515,-0.072 0.715,-0.286 0.228,-0.243 0.314,-0.515 0.314,-1.058 l 0.8,0 c 0,0.7 -0.171,1.215 -0.529,1.572 -0.328,0.328 -0.757,0.484 -1.3,0.484 -0.514,0 -0.971,-0.17 -1.299,-0.498 -0.343,-0.343 -0.571,-0.815 -0.571,-1.372 0,-0.357 0.057,-0.643 0.2,-0.915 0.157,-0.271 0.485,-0.6 0.942,-0.857 l 0.914,-0.5 c 0.343,-0.186 0.572,-0.386 0.729,-0.629 0.143,-0.229 0.2,-0.486 0.2,-0.786 0,-0.372 -0.115,-0.686 -0.329,-0.901 -0.214,-0.214 -0.486,-0.328 -0.829,-0.328 -0.271,0 -0.528,0.1 -0.728,0.3 -0.272,0.271 -0.372,0.614 -0.372,1.072 l -0.798,0 c 0,-0.615 0.157,-1.144 0.57,-1.573 0.328,-0.328 0.771,-0.512 1.328,-0.512 0.558,0 1.029,0.199 1.386,0.555 0.343,0.343 0.572,0.844 0.572,1.415 m 6.858,-1.856 -1.957,4.486 1.714,2.785 -0.871,0 -2.301,-3.814 0,6.715 -0.798,0 0,-10.172 0.798,0 0,2.271 0.958,1.515 1.571,-3.786 0.886,0 z m 12.445,0 -1.242,1.885 c 0.543,0.814 0.899,1.958 0.984,3.115 l -0.769,0 C 64.825,-2.401 64.568,-3.402 64.21,-3.988 l -1.886,2.844 c 1.101,1.043 1.557,1.701 1.557,2.901 0,1.115 -0.656,1.913 -1.914,1.913 -1.258,0 -1.899,-0.955 -1.899,-2.041 0,-0.815 0.313,-1.301 1.284,-2.673 -1.213,-1.115 -1.77,-1.958 -1.77,-3.201 0,-1.558 0.999,-2.456 2.256,-2.456 1.13,0 1.743,0.527 2.372,1.313 l 0.787,-1.199 0.913,0 z m -2.129,1.856 c -0.556,-0.714 -1.113,-1.229 -1.857,-1.229 -0.987,0 -1.543,0.829 -1.543,1.786 0,0.858 0.442,1.572 1.386,2.501 l 2.014,-3.058 z m -0.67,6.46 c 0,-0.986 -0.458,-1.515 -1.201,-2.244 -0.844,1.186 -1.058,1.601 -1.058,2.172 0,0.6 0.329,1.286 1.129,1.286 0.658,0 1.13,-0.5 1.13,-1.214 m 12.543,-6.403 -0.784,0 c 0,-0.428 -0.043,-0.771 -0.301,-1.029 -0.185,-0.185 -0.414,-0.285 -0.7,-0.285 -0.315,0 -0.587,0.142 -0.744,0.328 -0.329,0.4 -0.357,1.144 -0.357,2.701 0,1.558 0.028,2.316 0.357,2.716 0.157,0.186 0.429,0.329 0.744,0.329 0.314,0 0.529,-0.1 0.715,-0.301 0.257,-0.285 0.286,-0.671 0.286,-1.029 l 0.784,0 c -0.014,0.586 -0.086,1.172 -0.513,1.601 -0.314,0.328 -0.729,0.441 -1.287,0.441 -0.543,0 -1.029,-0.198 -1.343,-0.584 -0.442,-0.529 -0.542,-1.458 -0.542,-3.173 0,-1.715 0.1,-2.644 0.542,-3.172 0.314,-0.386 0.8,-0.57 1.343,-0.57 0.53,0 0.973,0.142 1.287,0.47 0.356,0.371 0.499,0.871 0.513,1.557 m 6.229,1.715 c 0,1.715 -0.099,2.644 -0.541,3.173 -0.314,0.386 -0.757,0.584 -1.344,0.584 -0.586,0 -1.029,-0.198 -1.343,-0.584 -0.442,-0.529 -0.542,-1.458 -0.542,-3.173 0,-1.715 0.1,-2.644 0.542,-3.172 0.314,-0.386 0.757,-0.57 1.343,-0.57 0.587,0 1.03,0.184 1.344,0.57 0.442,0.528 0.541,1.457 0.541,3.172 m -0.798,0 c 0,-1.557 -0.043,-2.301 -0.372,-2.701 -0.157,-0.186 -0.4,-0.328 -0.715,-0.328 -0.314,0 -0.572,0.142 -0.729,0.328 -0.329,0.4 -0.358,1.144 -0.358,2.701 0,1.558 0.029,2.316 0.358,2.716 0.157,0.186 0.415,0.329 0.729,0.329 0.315,0 0.558,-0.143 0.715,-0.329 0.329,-0.4 0.372,-1.158 0.372,-2.716 m 10.028,-3.628 0,5.458 c 0,0.729 -0.156,1.129 -0.441,1.428 -0.3,0.314 -0.629,0.499 -1.229,0.499 -0.329,0 -0.629,-0.099 -0.873,-0.256 C 88.384,0.428 88.199,0.214 88.071,0.029 87.785,0.471 87.257,0.798 86.714,0.798 86.385,0.798 86.113,0.699 85.884,0.542 85.756,0.456 85.555,0.257 85.47,0.1 l 0,0.584 -0.784,0 0,-7.271 0.798,0 0,5.472 c 0,0.8 0.458,1.186 1.015,1.186 0.558,0 1.001,-0.386 1.001,-1.186 l 0,-5.472 0.799,0 0,5.472 c 0,0.8 0.457,1.186 1.015,1.186 0.558,0 1.001,-0.386 1.001,-1.186 l 0,-5.472 0.798,0 z m 6.701,3.628 c 0,1.816 -0.099,2.73 -0.541,3.245 -0.3,0.342 -0.686,0.512 -1.129,0.512 -0.329,0 -0.587,-0.085 -0.83,-0.255 C 95.2,0.457 94.971,0.257 94.9,0.1 l 0,0.585 -0.784,0 0,-10.172 0.798,0 0,3.441 c 0.086,-0.157 0.257,-0.343 0.4,-0.428 0.243,-0.156 0.501,-0.227 0.83,-0.227 0.5,0 0.858,0.199 1.129,0.512 0.442,0.515 0.541,1.415 0.541,3.23 m -0.798,0 c 0,-1.557 -0.043,-2.301 -0.372,-2.701 -0.157,-0.186 -0.414,-0.328 -0.7,-0.328 -0.272,0 -0.501,0.085 -0.687,0.257 -0.214,0.214 -0.343,0.543 -0.343,1.015 l 0,3.53 c 0,0.471 0.129,0.786 0.343,1 0.186,0.172 0.415,0.272 0.687,0.272 0.286,0 0.543,-0.143 0.7,-0.329 0.329,-0.4 0.372,-1.158 0.372,-2.716 m 5.513,-3.628 0,0.713 c -0.8,0 -1.186,0.443 -1.186,1.229 l 0,8.23 -0.798,0 0,-8.23 c 0,-0.729 0.2,-1.172 0.542,-1.486 0.399,-0.371 0.899,-0.456 1.442,-0.456 m 3.201,7.271 -0.798,0 0,-7.271 0.798,0 0,7.271 z m 0.114,2.7 -1.027,0 0,-1.027 1.027,0 0,1.027 z m 6.273,-9.971 0,5.414 c 0,0.715 -0.172,1.173 -0.499,1.515 -0.286,0.3 -0.729,0.456 -1.301,0.456 -0.529,0 -0.958,-0.185 -1.258,-0.484 -0.413,-0.414 -0.527,-0.957 -0.527,-1.501 l 0.798,0 c 0,0.486 0.101,0.772 0.329,1.015 0.158,0.158 0.372,0.272 0.658,0.272 0.672,0 1.001,-0.443 1.001,-1.244 l 0,-1.301 -0.829,0 c -0.658,0 -1.073,-0.157 -1.43,-0.485 -0.413,-0.371 -0.613,-0.957 -0.613,-1.643 0,-0.786 0.2,-1.358 0.471,-1.644 0.313,-0.327 0.699,-0.484 1.157,-0.484 0.4,0 0.644,0.114 0.872,0.285 0.129,0.099 0.301,0.285 0.401,0.485 l 0,-0.656 0.77,0 z m -0.799,1.914 c 0,-0.758 -0.414,-1.315 -1.058,-1.315 -0.701,0 -1.015,0.557 -1.015,1.429 0,0.486 0.143,0.929 0.386,1.173 0.243,0.228 0.515,0.314 0.886,0.314 l 0.801,0 0,-1.601 z m 7.414,-1.914 0,5.458 c 0,0.729 -0.157,1.129 -0.442,1.428 -0.299,0.314 -0.657,0.499 -1.143,0.499 -0.329,0 -0.601,-0.099 -0.829,-0.256 -0.129,-0.086 -0.329,-0.285 -0.415,-0.442 l 0,0.584 -0.784,0 0,-7.271 0.798,0 0,5.472 c 0,0.8 0.458,1.186 1.015,1.186 0.558,0 1.001,-0.386 1.001,-1.186 l 0,-5.472 0.799,0 z m 6.444,1.913 -0.785,0 c 0,-0.428 -0.042,-0.771 -0.3,-1.029 -0.186,-0.185 -0.415,-0.285 -0.701,-0.285 -0.314,0 -0.586,0.142 -0.743,0.328 -0.329,0.4 -0.358,1.144 -0.358,2.701 0,1.558 0.029,2.316 0.358,2.716 0.157,0.186 0.429,0.329 0.743,0.329 0.315,0 0.53,-0.1 0.715,-0.301 0.258,-0.285 0.286,-0.671 0.286,-1.029 l 0.785,0 c -0.015,0.586 -0.086,1.172 -0.514,1.601 -0.313,0.328 -0.728,0.441 -1.286,0.441 -0.543,0 -1.029,-0.198 -1.343,-0.584 -0.442,-0.529 -0.542,-1.458 -0.542,-3.173 0,-1.715 0.1,-2.644 0.542,-3.172 0.314,-0.386 0.8,-0.57 1.343,-0.57 0.529,0 0.973,0.142 1.286,0.47 0.357,0.371 0.499,0.871 0.514,1.557 m 6.215,1.602 c 0,1.756 -0.057,2.786 -0.57,3.343 -0.314,0.343 -0.743,0.527 -1.301,0.527 -0.558,0 -0.987,-0.184 -1.301,-0.527 -0.484,-0.514 -0.584,-1.487 -0.584,-3.229 0,-1.744 0.1,-2.701 0.584,-3.216 0.314,-0.343 0.743,-0.527 1.315,-0.527 0.501,0 1.001,0.17 1.315,0.498 0.371,0.386 0.513,0.829 0.528,1.53 l -0.785,0 c 0,-0.443 -0.114,-0.801 -0.328,-1.029 -0.186,-0.201 -0.444,-0.286 -0.73,-0.286 -0.329,0 -0.572,0.143 -0.729,0.329 -0.329,0.371 -0.372,1.1 -0.372,2.587 l 2.958,0 z m -0.799,0.641 -2.159,0 c 0.015,1.23 0.072,1.859 0.358,2.188 0.157,0.186 0.4,0.328 0.729,0.328 0.329,0 0.558,-0.142 0.715,-0.328 0.286,-0.329 0.343,-0.958 0.357,-2.188"
         style="fill:#ffffff;fill-opacity:1;fill-rule:nonzero;stroke:none"
         id="path3119"
         inkscape:connector-curvature="0" /></g><flowRoot
       xml:space="preserve"
       id="flowRoot3154"
       style="font-size:40px;font-style:normal;font-weight:normal;line-height:125%;letter-spacing:0px;word-spacing:0px;fill:#000000;fill-opacity:1;stroke:none;font-family:Sans"><flowRegion
         id="flowRegion3156"><rect
           id="rect3158"
           width="146.06563"
           height="113.86217"
           x="134.56439"
           y="335.83591" /></flowRegion><flowPara
         id="flowPara3160" /></flowRoot><flowRoot
       xml:space="preserve"
       id="flowRoot3170"
       style="font-size:40px;font-style:normal;font-weight:normal;line-height:125%;letter-spacing:0px;word-spacing:0px;fill:#000000;fill-opacity:1;stroke:none;font-family:Sans"
       transform="matrix(0.8,0,0,-0.8,0,841.89)"><flowRegion
         id="flowRegion3172"><rect
           id="rect3174"
           width="806.23621"
           height="134.56439"
           x="-67.857254"
           y="-1.150123" /></flowRegion><flowPara
         id="flowPara3176" /></flowRoot></g></svg>